<mxfile host="Electron" modified="2023-08-11T10:57:17.073Z" agent="Mozilla/5.0 (X11; Linux x86_64) AppleWebKit/537.36 (KHTML, like Gecko) draw.io/21.6.5 Chrome/114.0.5735.243 Electron/25.3.1 Safari/537.36" etag="kpPwWAg0bipjlFzcNFuq" version="21.6.5" type="device">
  <diagram name="第 1 页" id="8udqCVcWFPwIqk8zSmB4">
    <mxGraphModel dx="1132" dy="1138" grid="1" gridSize="10" guides="1" tooltips="1" connect="1" arrows="1" fold="1" page="0" pageScale="1" pageWidth="827" pageHeight="1169" math="0" shadow="0">
      <root>
        <mxCell id="0" />
        <mxCell id="1" parent="0" />
        <mxCell id="O2yl72CV_IkG8Va4xqDS-3" value="" style="edgeStyle=none;curved=1;rounded=0;orthogonalLoop=1;jettySize=auto;html=1;fontSize=12;startSize=8;endSize=8;" edge="1" parent="1" source="O2yl72CV_IkG8Va4xqDS-1" target="O2yl72CV_IkG8Va4xqDS-2">
          <mxGeometry relative="1" as="geometry" />
        </mxCell>
        <mxCell id="O2yl72CV_IkG8Va4xqDS-1" value="乙酰 CoA" style="text;html=1;align=center;verticalAlign=middle;resizable=0;points=[];autosize=1;strokeColor=none;fillColor=none;fontSize=16;" vertex="1" parent="1">
          <mxGeometry x="125" y="-92" width="90" height="30" as="geometry" />
        </mxCell>
        <mxCell id="O2yl72CV_IkG8Va4xqDS-6" value="" style="edgeStyle=none;curved=1;rounded=0;orthogonalLoop=1;jettySize=auto;html=1;fontSize=12;startSize=8;endSize=8;" edge="1" parent="1" source="O2yl72CV_IkG8Va4xqDS-2" target="O2yl72CV_IkG8Va4xqDS-5">
          <mxGeometry relative="1" as="geometry" />
        </mxCell>
        <mxCell id="O2yl72CV_IkG8Va4xqDS-2" value="..." style="text;html=1;align=center;verticalAlign=middle;resizable=0;points=[];autosize=1;strokeColor=none;fillColor=none;fontSize=16;" vertex="1" parent="1">
          <mxGeometry x="150" y="-40" width="40" height="30" as="geometry" />
        </mxCell>
        <mxCell id="O2yl72CV_IkG8Va4xqDS-4" value="HMG-CoA 还原酶" style="text;html=1;align=center;verticalAlign=middle;resizable=0;points=[];autosize=1;strokeColor=#b85450;fillColor=#f8cecc;fontSize=16;rounded=1;" vertex="1" parent="1">
          <mxGeometry x="180" width="150" height="30" as="geometry" />
        </mxCell>
        <mxCell id="O2yl72CV_IkG8Va4xqDS-8" value="" style="edgeStyle=none;curved=1;rounded=0;orthogonalLoop=1;jettySize=auto;html=1;fontSize=12;startSize=8;endSize=8;" edge="1" parent="1" source="O2yl72CV_IkG8Va4xqDS-5" target="O2yl72CV_IkG8Va4xqDS-7">
          <mxGeometry relative="1" as="geometry" />
        </mxCell>
        <mxCell id="O2yl72CV_IkG8Va4xqDS-5" value="..." style="text;html=1;align=center;verticalAlign=middle;resizable=0;points=[];autosize=1;strokeColor=none;fillColor=none;fontSize=16;" vertex="1" parent="1">
          <mxGeometry x="150" y="50" width="40" height="30" as="geometry" />
        </mxCell>
        <mxCell id="O2yl72CV_IkG8Va4xqDS-10" value="" style="edgeStyle=none;curved=1;rounded=0;orthogonalLoop=1;jettySize=auto;html=1;fontSize=12;startSize=8;endSize=8;" edge="1" parent="1" source="O2yl72CV_IkG8Va4xqDS-7" target="O2yl72CV_IkG8Va4xqDS-9">
          <mxGeometry relative="1" as="geometry" />
        </mxCell>
        <mxCell id="O2yl72CV_IkG8Va4xqDS-30" style="edgeStyle=orthogonalEdgeStyle;rounded=0;orthogonalLoop=1;jettySize=auto;html=1;fontSize=12;startSize=8;endSize=8;" edge="1" parent="1" source="O2yl72CV_IkG8Va4xqDS-7" target="O2yl72CV_IkG8Va4xqDS-4">
          <mxGeometry relative="1" as="geometry">
            <Array as="points">
              <mxPoint x="255" y="115" />
            </Array>
          </mxGeometry>
        </mxCell>
        <mxCell id="O2yl72CV_IkG8Va4xqDS-33" value="⊖" style="edgeLabel;html=1;align=center;verticalAlign=middle;resizable=0;points=[];fontSize=16;" vertex="1" connectable="0" parent="O2yl72CV_IkG8Va4xqDS-30">
          <mxGeometry x="0.2959" y="1" relative="1" as="geometry">
            <mxPoint as="offset" />
          </mxGeometry>
        </mxCell>
        <mxCell id="O2yl72CV_IkG8Va4xqDS-31" style="edgeStyle=orthogonalEdgeStyle;rounded=0;orthogonalLoop=1;jettySize=auto;html=1;fontSize=12;startSize=8;endSize=8;" edge="1" parent="1" source="O2yl72CV_IkG8Va4xqDS-7" target="O2yl72CV_IkG8Va4xqDS-11">
          <mxGeometry relative="1" as="geometry">
            <Array as="points">
              <mxPoint x="255" y="115" />
            </Array>
          </mxGeometry>
        </mxCell>
        <mxCell id="O2yl72CV_IkG8Va4xqDS-32" value="⊕" style="edgeLabel;html=1;align=center;verticalAlign=middle;resizable=0;points=[];fontSize=16;" vertex="1" connectable="0" parent="O2yl72CV_IkG8Va4xqDS-31">
          <mxGeometry x="0.4178" y="-1" relative="1" as="geometry">
            <mxPoint as="offset" />
          </mxGeometry>
        </mxCell>
        <mxCell id="O2yl72CV_IkG8Va4xqDS-7" value="胆固醇" style="text;html=1;align=center;verticalAlign=middle;resizable=0;points=[];autosize=1;strokeColor=none;fillColor=none;fontSize=16;" vertex="1" parent="1">
          <mxGeometry x="135" y="100" width="70" height="30" as="geometry" />
        </mxCell>
        <mxCell id="O2yl72CV_IkG8Va4xqDS-13" value="" style="edgeStyle=none;curved=1;rounded=0;orthogonalLoop=1;jettySize=auto;html=1;fontSize=12;startSize=8;endSize=8;" edge="1" parent="1" source="O2yl72CV_IkG8Va4xqDS-9" target="O2yl72CV_IkG8Va4xqDS-12">
          <mxGeometry relative="1" as="geometry" />
        </mxCell>
        <mxCell id="O2yl72CV_IkG8Va4xqDS-9" value="..." style="text;html=1;align=center;verticalAlign=middle;resizable=0;points=[];autosize=1;strokeColor=none;fillColor=none;fontSize=16;" vertex="1" parent="1">
          <mxGeometry x="150" y="230" width="40" height="30" as="geometry" />
        </mxCell>
        <mxCell id="O2yl72CV_IkG8Va4xqDS-11" value="胆固醇 7-α 羟化酶" style="text;html=1;align=center;verticalAlign=middle;resizable=0;points=[];autosize=1;strokeColor=#b85450;fillColor=#f8cecc;fontSize=16;rounded=1;" vertex="1" parent="1">
          <mxGeometry x="180" y="180" width="150" height="30" as="geometry" />
        </mxCell>
        <mxCell id="O2yl72CV_IkG8Va4xqDS-26" style="edgeStyle=orthogonalEdgeStyle;rounded=0;orthogonalLoop=1;jettySize=auto;html=1;fontSize=12;startSize=8;endSize=8;" edge="1" parent="1" source="O2yl72CV_IkG8Va4xqDS-12" target="O2yl72CV_IkG8Va4xqDS-11">
          <mxGeometry relative="1" as="geometry">
            <Array as="points">
              <mxPoint x="255" y="295" />
            </Array>
          </mxGeometry>
        </mxCell>
        <mxCell id="O2yl72CV_IkG8Va4xqDS-27" value="⊖" style="edgeLabel;html=1;align=center;verticalAlign=middle;resizable=0;points=[];fontSize=16;" vertex="1" connectable="0" parent="O2yl72CV_IkG8Va4xqDS-26">
          <mxGeometry x="0.3123" relative="1" as="geometry">
            <mxPoint as="offset" />
          </mxGeometry>
        </mxCell>
        <mxCell id="O2yl72CV_IkG8Va4xqDS-28" style="edgeStyle=orthogonalEdgeStyle;rounded=0;orthogonalLoop=1;jettySize=auto;html=1;fontSize=12;startSize=8;endSize=8;" edge="1" parent="1" source="O2yl72CV_IkG8Va4xqDS-12" target="O2yl72CV_IkG8Va4xqDS-4">
          <mxGeometry relative="1" as="geometry">
            <mxPoint x="450" y="255" as="targetPoint" />
            <Array as="points">
              <mxPoint x="370" y="295" />
              <mxPoint x="370" y="15" />
            </Array>
          </mxGeometry>
        </mxCell>
        <mxCell id="O2yl72CV_IkG8Va4xqDS-29" value="⊖" style="edgeLabel;html=1;align=center;verticalAlign=middle;resizable=0;points=[];fontSize=16;" vertex="1" connectable="0" parent="O2yl72CV_IkG8Va4xqDS-28">
          <mxGeometry x="0.3284" y="-1" relative="1" as="geometry">
            <mxPoint x="-1" y="-59" as="offset" />
          </mxGeometry>
        </mxCell>
        <mxCell id="O2yl72CV_IkG8Va4xqDS-12" value="胆汁酸" style="text;html=1;align=center;verticalAlign=middle;resizable=0;points=[];autosize=1;strokeColor=none;fillColor=none;fontSize=16;" vertex="1" parent="1">
          <mxGeometry x="135" y="280" width="70" height="30" as="geometry" />
        </mxCell>
        <mxCell id="O2yl72CV_IkG8Va4xqDS-38" style="edgeStyle=none;curved=1;rounded=0;orthogonalLoop=1;jettySize=auto;html=1;fontSize=12;startSize=8;endSize=8;exitX=0.005;exitY=0.498;exitDx=0;exitDy=0;exitPerimeter=0;" edge="1" parent="1" source="O2yl72CV_IkG8Va4xqDS-34" target="O2yl72CV_IkG8Va4xqDS-11">
          <mxGeometry relative="1" as="geometry" />
        </mxCell>
        <mxCell id="O2yl72CV_IkG8Va4xqDS-41" value="⊕" style="edgeLabel;html=1;align=center;verticalAlign=middle;resizable=0;points=[];fontSize=16;" vertex="1" connectable="0" parent="O2yl72CV_IkG8Va4xqDS-38">
          <mxGeometry x="-0.4602" y="-1" relative="1" as="geometry">
            <mxPoint as="offset" />
          </mxGeometry>
        </mxCell>
        <mxCell id="O2yl72CV_IkG8Va4xqDS-34" value="糖皮质激素、生长因子" style="text;html=1;align=center;verticalAlign=middle;resizable=0;points=[];autosize=1;strokeColor=none;fillColor=none;fontSize=16;" vertex="1" parent="1">
          <mxGeometry x="430" y="150" width="180" height="30" as="geometry" />
        </mxCell>
        <mxCell id="O2yl72CV_IkG8Va4xqDS-37" style="edgeStyle=none;curved=1;rounded=0;orthogonalLoop=1;jettySize=auto;html=1;fontSize=12;startSize=8;endSize=8;exitX=0.002;exitY=0.491;exitDx=0;exitDy=0;exitPerimeter=0;" edge="1" parent="1" source="O2yl72CV_IkG8Va4xqDS-35" target="O2yl72CV_IkG8Va4xqDS-11">
          <mxGeometry relative="1" as="geometry" />
        </mxCell>
        <mxCell id="O2yl72CV_IkG8Va4xqDS-35" value="mRNA" style="text;html=1;align=center;verticalAlign=middle;resizable=0;points=[];autosize=1;strokeColor=none;fillColor=none;fontSize=16;" vertex="1" parent="1">
          <mxGeometry x="410" y="210" width="70" height="30" as="geometry" />
        </mxCell>
        <mxCell id="O2yl72CV_IkG8Va4xqDS-39" style="edgeStyle=none;curved=1;rounded=0;orthogonalLoop=1;jettySize=auto;html=1;fontSize=12;startSize=8;endSize=8;" edge="1" parent="1" source="O2yl72CV_IkG8Va4xqDS-36" target="O2yl72CV_IkG8Va4xqDS-35">
          <mxGeometry relative="1" as="geometry" />
        </mxCell>
        <mxCell id="O2yl72CV_IkG8Va4xqDS-40" value="⊕" style="edgeLabel;html=1;align=center;verticalAlign=middle;resizable=0;points=[];fontSize=16;" vertex="1" connectable="0" parent="O2yl72CV_IkG8Va4xqDS-39">
          <mxGeometry x="-0.0614" y="-2" relative="1" as="geometry">
            <mxPoint y="2" as="offset" />
          </mxGeometry>
        </mxCell>
        <mxCell id="O2yl72CV_IkG8Va4xqDS-36" value="甲状腺素" style="text;html=1;align=center;verticalAlign=middle;resizable=0;points=[];autosize=1;strokeColor=none;fillColor=none;fontSize=16;" vertex="1" parent="1">
          <mxGeometry x="540" y="210" width="90" height="30" as="geometry" />
        </mxCell>
      </root>
    </mxGraphModel>
  </diagram>
</mxfile>
